HIERARCHY
ROOT root
{
	OFFSET	0	13.1	24.9
	CHANNELS 6  Xposition Yposition Zposition Xrotation Yrotation Zrotation
	JOINT spine_1
	{
		OFFSET	0	9.99999	0
		CHANNELS 3  Xrotation Yrotation Zrotation
		JOINT spine_2
		{
			OFFSET	0	112	-10
			CHANNELS 3  Xrotation Yrotation Zrotation
			JOINT spine_3
			{
				OFFSET	0	206.5	19.3
				CHANNELS 3  Xrotation Yrotation Zrotation
				JOINT spine_4
				{
					OFFSET	0	110.4	14.6
					CHANNELS 3  Xrotation Yrotation Zrotation
					JOINT neck_1
					{
						OFFSET	0	71.8	-50.3
						CHANNELS 3  Xrotation Yrotation Zrotation
						JOINT neck_2
						{
							OFFSET	0	86.2	-25.8
							CHANNELS 3  Xrotation Yrotation Zrotation
							JOINT head_ee
							{
								OFFSET	0	179.8	-8.7
								CHANNELS 3  Xrotation Yrotation Zrotation
								End Site
								{
									OFFSET	1	0	0
								}
							}
						}
					}
					JOINT left_clavicle
					{
						OFFSET	-43.2	22.4	-70.8
						CHANNELS 3  Xrotation Yrotation Zrotation
						JOINT left_shoulder
						{
							OFFSET	-93.9	-5.79999	48.7
							CHANNELS 3  Xrotation Yrotation Zrotation
							JOINT left_elbow
							{
								OFFSET	-291.4	-30.8	15.2
								CHANNELS 3  Xrotation Yrotation Zrotation
								JOINT left_lowarm_twist
								{
									OFFSET	-110.7	-3.89999	13.6
									CHANNELS 3  Xrotation Yrotation Zrotation
									JOINT left_hand
									{
										OFFSET	-110.7	-3.89999	13.6
										CHANNELS 3  Xrotation Yrotation Zrotation
										JOINT left_ee
										{
											OFFSET	-80.8	-5.10001	12.1
											CHANNELS 3  Xrotation Yrotation Zrotation
											End Site
											{
												OFFSET	1	0	0
											}
										}
									}
								}
							}
						}
					}
					JOINT right_clavicle
					{
						OFFSET	43.2	22.4	-70.8
						CHANNELS 3  Xrotation Yrotation Zrotation
						JOINT right_shoulder
						{
							OFFSET	93.9	-5.79999	48.7
							CHANNELS 3  Xrotation Yrotation Zrotation
							JOINT right_elbow
							{
								OFFSET	291.4	-30.8	15.2
								CHANNELS 3  Xrotation Yrotation Zrotation
								JOINT right_lowarm_twist
								{
									OFFSET	110.7	-3.89999	13.6
									CHANNELS 3  Xrotation Yrotation Zrotation
									JOINT right_hand
									{
										OFFSET	110.7	-3.89999	13.6
										CHANNELS 3  Xrotation Yrotation Zrotation
										JOINT right_ee
										{
											OFFSET	80.8	-5.10001	12.1
											CHANNELS 3  Xrotation Yrotation Zrotation
											End Site
											{
												OFFSET	1	0	0
											}
										}
									}
								}
							}
						}
					}
				}
			}
		}
	}
	JOINT left_hip
	{
		OFFSET	-82.8	-127.5	0.300001
		CHANNELS 3  Xrotation Yrotation Zrotation
		JOINT left_knee
		{
			OFFSET	-28.2	-396.7	2.2
			CHANNELS 3  Xrotation Yrotation Zrotation
			JOINT left_ankle
			{
				OFFSET	-11.7	-411.3	35.4
				CHANNELS 3  Xrotation Yrotation Zrotation
				JOINT left_toes
				{
					OFFSET	0	-60	-88.6
					CHANNELS 3  Xrotation Yrotation Zrotation
					JOINT left_foot_ee
					{
						OFFSET	-22.5	-16.5	-42.2
						CHANNELS 3  Xrotation Yrotation Zrotation
						End Site
						{
							OFFSET	1	0	0
						}
					}
				}
			}
		}
	}
	JOINT right_hip
	{
		OFFSET	82.8	-127.5	0.300001
		CHANNELS 3  Xrotation Yrotation Zrotation
		JOINT right_knee
		{
			OFFSET	28.2	-396.7	2.2
			CHANNELS 3  Xrotation Yrotation Zrotation
			JOINT right_ankle
			{
				OFFSET	11.7	-411.3	35.4
				CHANNELS 3  Xrotation Yrotation Zrotation
				JOINT right_toes
				{
					OFFSET	0	-60	-88.6
					CHANNELS 3  Xrotation Yrotation Zrotation
					JOINT right_foot_ee
					{
						OFFSET	22.5	-16.5	-42.2
						CHANNELS 3  Xrotation Yrotation Zrotation
						End Site
						{
							OFFSET	1	0	0
						}
					}
				}
			}
		}
	}
}
MOTION
Frames: 12
Frame Time: 0.02
3214.07 694.384 -516.506 -8.54624 -85.7658 -12.2675 2.87408 0.389852 1.19421 2.87482 0.313077 1.21659 2.88131 0.113461 1.25109 2.87926 0.309609 1.21748 -15.1486 7.88018 0.451009 -15.3446 14.8107 3.08971 -0.0 0.0 -0.0 5.99905 12.0967 11.5526 -35.074 -23.2948 62.1162 0.490684 -13.6622 0.0587808 41.7521 -0.44352 -5.19878 -2.49103 28.8224 -2.17558 -0.0 0.0 -0.0 8.76872 -19.3014 -15.5928 1.42413 27.9216 -66.0396 2.1558 46.8753 -0.934671 34.0836 0.0778084 4.28973 1.09345 -24.9683 -16.2838 0.0 0.0 0.0 13.8061 -19.0113 1.88212 -42.8187 -0.655762 6.3883 24.5513 27.1045 -3.49697 14.1075 -0.0 -0.0 -0.0 0.0 -0.0 11.3263 -4.75369 1.43759 -3.89694 -0.140718 -0.581392 12.9918 -2.98972 1.83287 22.2831 -0.0 -0.0 0.0 0.0 0.0 
3219.92 695.295 -519.392 -4.767 -86.6615 -8.66231 2.69926 0.433259 1.29804 2.70013 0.349791 1.32297 2.70808 0.128491 1.36238 2.70565 0.342022 1.325 -14.506 7.44922 0.283949 -14.668 14.0593 2.70068 -0.0 0.0 -0.0 6.18675 12.116 11.8751 -35.6349 -23.1317 62.5656 0.429628 -12.0149 0.0452125 41.5587 -0.432809 -5.17647 -2.42197 28.9676 -1.73039 -0.0 0.0 -0.0 8.86104 -19.3464 -15.734 2.43442 28.9153 -66.7283 2.29733 48.687 -1.03949 33.6841 0.0621309 4.24113 1.23211 -25.6252 -17.2994 0.0 0.0 0.0 16.7465 -21.0225 2.2549 -42.9913 -0.667958 6.41188 20.8907 26.8682 -3.01876 13.0577 -0.0 -0.0 -0.0 0.0 -0.0 9.9482 -4.37824 1.62483 -2.17722 -0.0835027 -0.323676 12.4679 -2.65701 1.76341 21.6492 -0.0 -0.0 0.0 0.0 0.0 
3228.21 694.258 -522.999 -8.9917 -86.5152 -12.8033 2.62802 0.436819 1.36395 2.62899 0.34915 1.38898 2.63732 0.11529 1.42753 2.63464 0.339274 1.39142 -14.0403 7.31442 0.279544 -14.1859 13.7854 2.59327 -0.0 0.0 -0.0 6.07477 12.6899 11.6653 -35.4589 -23.2165 62.4488 0.412101 -11.5382 0.0416353 41.3392 -0.420748 -5.15112 -2.24003 29.0289 -0.725257 -0.0 0.0 -0.0 8.71888 -19.1805 -15.5289 3.27386 28.375 -66.847 2.37023 49.5721 -1.09462 35.4679 0.134757 4.45727 1.48621 -23.501 -18.2151 0.0 0.0 0.0 17.6749 -18.8462 1.64859 -38.7614 -0.389857 5.82412 17.8742 28.1627 -2.63603 10.3411 -0.0 -0.0 -0.0 0.0 -0.0 8.66432 -4.28743 1.57876 0.675785 0.0284171 0.0998091 13.0948 -2.60616 1.84772 20.4574 -0.0 -0.0 0.0 0.0 0.0 
3234.28 692.74 -522.191 -9.37683 -87.1684 -13.0664 2.54963 0.363648 1.38698 2.55066 0.274663 1.4073 2.55727 0.0367747 1.43338 2.5545 0.262666 1.40959 -13.1323 7.20536 0.384324 -13.2524 13.4728 2.54679 -0.0 0.0 -0.0 6.20311 12.5593 11.8889 -35.9494 -22.9821 62.1998 0.375633 -10.5411 0.0346519 41.0487 -0.404928 -5.11749 -2.26407 28.9095 -0.913684 -0.0 0.0 -0.0 8.98157 -19.3869 -15.9208 4.42412 27.7835 -68.2623 2.44141 50.4064 -1.14914 35.5674 0.139008 4.46927 1.551 -23.397 -18.5815 0.0 0.0 0.0 18.7641 -17.456 0.477154 -34.3285 -0.145911 5.18831 16.0925 27.9214 -2.38532 8.3868 -0.0 -0.0 -0.0 0.0 -0.0 7.64821 -3.87869 1.51166 2.13628 0.0938479 0.314354 13.3904 -2.24654 1.88831 20.3887 -0.0 -0.0 0.0 0.0 0.0 
3238.54 693.744 -522.148 -17.1331 -86.2026 -20.6064 2.53004 0.279036 1.40028 2.53111 0.189376 1.41519 2.53562 -0.0492033 1.42696 2.53282 0.176753 1.41683 -12.2004 8.29508 1.07673 -12.3253 15.0547 3.41743 -0.0 0.0 -0.0 6.31063 13.232 12.0481 -36.0288 -25.2251 61.1808 0.355087 -9.97646 0.0309927 41.5147 -0.430384 -5.1714 -2.09798 28.9077 -0.0244992 -0.0 0.0 -0.0 9.21185 -19.0089 -16.3426 3.77488 28.1854 -67.7301 2.43802 50.3674 -1.14653 36.4746 0.178707 4.57823 1.76984 -20.3344 -19.0577 0.0 0.0 0.0 20.3129 -16.4653 -0.545895 -27.4451 0.133413 4.16956 12.0206 28.349 -1.81195 3.98832 -0.0 -0.0 -0.0 0.0 -0.0 6.8041 -2.95807 1.38219 4.0402 0.187335 0.591463 14.1489 -0.316561 1.99664 17.5731 -0.0 -0.0 0.0 0.0 0.0 
3244.32 694.004 -523.164 -22.4865 -86.3202 -25.8424 2.51319 0.402301 1.49684 2.51438 0.306249 1.5194 2.52236 0.0483424 1.54919 2.51913 0.292373 1.52213 -11.1398 7.52475 1.11409 -11.2178 13.4972 3.10119 -0.0 0.0 -0.0 6.34 13.0382 12.1055 -35.5222 -25.015 60.6774 0.295682 -8.33317 0.0215402 40.9661 -0.400462 -5.10791 -1.95172 28.9378 0.77361 -0.0 0.0 -0.0 9.14064 -19.2237 -16.1979 3.07756 27.2106 -67.6962 2.55488 51.6782 -1.23739 37.1694 0.210279 4.66127 1.71884 -20.2264 -18.7028 0.0 0.0 0.0 19.2903 -16.7859 -1.16198 -22.2031 0.262963 3.37582 11.264 28.6537 -1.70544 2.6565 -0.0 -0.0 -0.0 0.0 -0.0 7.22847 -3.55721 1.42849 3.49955 0.15985 0.513084 14.254 -0.915048 2.00805 17.9953 -0.0 -0.0 0.0 0.0 0.0 
3253.6 695.899 -522.746 -23.5866 -85.6593 -26.4883 2.50598 0.349613 1.49042 2.50718 0.254076 1.50964 2.51371 -0.00172011 1.53087 2.51052 0.240046 1.51194 -10.3767 7.54749 0.730428 -10.4438 13.7428 2.64709 -0.0 0.0 -0.0 6.17861 13.5655 11.8121 -35.2903 -26.3084 59.9358 0.328417 -9.24057 0.0265408 41.656 -0.438185 -5.18769 -1.58396 29.1192 2.82668 -0.0 0.0 -0.0 9.22242 -19.5244 -16.2862 1.41684 26.2859 -67.4785 2.55925 51.7257 -1.24081 37.9873 0.248736 4.75852 1.74272 -18.8893 -18.4519 0.0 0.0 0.0 18.0691 -16.85 -2.36828 -17.5663 0.316669 2.66657 8.7013 28.503 -1.32643 0.567049 -0.0 -0.0 -0.0 0.0 -0.0 7.01589 -3.71854 0.694969 3.80401 0.175237 0.557253 14.0898 -1.84101 1.98276 16.7549 -0.0 -0.0 0.0 0.0 0.0 
3257.44 695.428 -523.14 -27.7598 -84.9283 -30.5863 2.50959 0.218825 1.40144 2.51067 0.129213 1.41252 2.51368 -0.108638 1.41425 2.51091 0.116057 1.41366 -10.8118 7.60193 2.06053 -10.8701 12.9943 3.99663 -0.0 0.0 -0.0 6.44399 13.6355 12.2576 -35.3047 -27.3913 59.0427 0.296484 -8.35544 0.0216566 40.8941 -0.396585 -5.09957 -1.62398 28.9564 2.53849 -0.0 0.0 -0.0 8.60387 -19.6889 -15.2817 1.06451 26.0707 -68.4505 2.6148 52.3221 -1.2846 38.5147 0.274269 4.82094 1.83721 -18.329 -18.8874 0.0 0.0 0.0 17.234 -16.4835 -2.86926 -13.9427 0.31861 2.1107 9.35023 28.0974 -1.41889 -0.0772689 0.0 0.0 -0.0 0.0 -0.0 7.69911 -3.55878 0.431217 4.39268 0.205653 0.642424 15.0172 -0.844923 2.1092 16.9085 -0.0 -0.0 0.0 0.0 0.0 
3270.4 699.009 -527.318 -36.8682 -85.1358 -39.6167 2.67785 0.240195 1.33004 2.67882 0.155082 1.34263 2.68226 -0.0674719 1.34987 2.67975 0.146541 1.34359 -10.1874 7.63741 3.40664 -10.2075 12.1021 5.24103 -0.0 0.0 -0.0 6.44246 14.2918 12.2258 -35.0558 -28.1247 58.7731 0.312912 -8.81133 0.0241084 41.4324 -0.425857 -5.16189 -1.26095 29.1462 4.56878 -0.0 0.0 -0.0 8.73686 -21.0502 -15.3093 -1.27391 27.2457 -67.7299 2.58278 51.9803 -1.25932 38.7931 0.287983 4.8538 1.66542 -19.1729 -18.0459 0.0 0.0 0.0 16.0826 -16.3051 -3.09534 -12.3386 0.308246 1.86481 5.61079 28.1369 -0.860662 0.27771 -0.0 -0.0 -0.0 0.0 -0.0 7.7224 -3.38465 0.330244 4.07371 0.189063 0.596313 14.3127 -0.946284 2.01571 15.6664 -0.0 -0.0 0.0 0.0 0.0 
3279.66 702.158 -527.575 -45.4837 -85.6635 -48.0614 2.85805 0.309377 1.19959 2.85882 0.232423 1.21684 2.86358 0.0334139 1.23838 2.86152 0.228559 1.21757 -10.6814 8.13564 3.92297 -10.7049 12.755 5.91933 -0.0 0.0 -0.0 6.24155 14.2884 11.8899 -34.6181 -28.8547 58.1682 0.395394 -11.0822 0.0383586 41.8881 -0.451096 -5.21444 -1.22284 28.994 4.7082 -0.0 0.0 -0.0 8.40792 -19.2307 -15.0281 -3.55021 25.9602 -67.7508 2.46382 50.6632 -1.16645 39.9123 0.344711 4.98521 1.78303 -17.8188 -18.3816 0.0 0.0 0.0 15.1421 -16.1678 -3.35206 -12.3567 0.308401 1.86758 5.65246 28.2957 -0.867836 1.2863 -0.0 -0.0 -0.0 0.0 -0.0 7.81628 -2.95459 0.367481 2.71626 0.121348 0.399088 15.7791 -0.758315 2.20948 15.0124 -0.0 -0.0 0.0 0.0 0.0 
3290.89 703.051 -530.294 -64.5247 -86.4137 -66.9118 3.02341 0.38661 1.11259 3.02404 0.315035 1.13493 3.03012 0.131559 1.17047 3.02835 0.31475 1.13501 -10.3644 8.55001 4.93864 -10.3588 12.8189 6.9735 -0.0 0.0 -0.0 6.16767 14.9827 11.7387 -35.3404 -29.0223 57.7258 0.439222 -12.2752 0.0472311 41.7363 -0.442638 -5.19695 -1.09792 28.9964 5.38108 -0.0 0.0 -0.0 8.05971 -20.7742 -14.3032 -5.62851 25.908 -68.0813 2.513 51.2169 -1.20463 41.0822 0.406748 5.12138 1.75962 -17.6238 -18.1701 0.0 0.0 0.0 14.4902 -16.2792 -3.3744 -13.7663 0.317808 2.08364 3.95029 28.0671 -0.60827 3.33785 -0.0 -0.0 -0.0 0.0 -0.0 7.85616 -3.2092 0.170221 0.570935 0.0239309 0.084345 16.4594 -2.11791 2.29229 14.6488 -0.0 -0.0 0.0 0.0 0.0 
3302.05 702.489 -529.837 -97.9555 -86.39 -99.8428 3.27232 0.360228 0.917227 3.27274 0.301135 0.938288 3.27754 0.153138 0.973452 3.27634 0.304948 0.937056 -9.33433 8.82604 5.36979 -9.30141 12.8954 7.356 -0.0 0.0 -0.0 5.98786 15.2236 11.4329 -34.7459 -28.4562 57.4809 0.520169 -14.4496 0.065942 42.4137 -0.480723 -5.27479 -0.963602 28.8043 6.02584 -0.0 0.0 -0.0 7.99884 -19.0475 -14.4011 -8.04986 25.664 -68.4825 2.18479 47.2567 -0.955894 41.2042 0.413377 5.13551 1.76229 -17.1944 -18.0529 0.0 0.0 0.0 13.6728 -15.6631 -4.33827 -15.1018 0.321814 2.2885 2.34311 28.447 -0.363072 3.36439 -0.0 -0.0 -0.0 0.0 -0.0 7.55029 -2.16066 -0.059801 -0.623383 -0.0251664 -0.0923546 16.3695 0.0405922 2.29028 13.4666 -0.0 -0.0 0.0 0.0 0.0 
